HIERARCHY
ROOT hip
{
  OFFSET 0 0 0
  CHANNELS 6 Xposition Yposition Zposition Zrotation Yrotation Xrotation
  JOINT abdomen
  {
    OFFSET 0 20.6881 -0.73152
    CHANNELS 3 Zrotation Xrotation Yrotation
    JOINT chest
    {
      OFFSET 0 11.7043 -0.48768
      CHANNELS 3 Zrotation Xrotation Yrotation
      JOINT neck
      {
        OFFSET 0 22.1894 -2.19456
        CHANNELS 3 Zrotation Xrotation Yrotation
        JOINT head
        {
          OFFSET -0.24384 7.07133 1.2192
          CHANNELS 3 Zrotation Xrotation Yrotation
          JOINT leftEye
          {
            OFFSET 4.14528 8.04674 8.04672
            CHANNELS 3 Zrotation Xrotation Yrotation
            End Site
            {
              OFFSET 1 0 0
            }
          }
          JOINT rightEye
          {
            OFFSET -3.6576 8.04674 8.04672
            CHANNELS 3 Zrotation Xrotation Yrotation
            End Site
            {
              OFFSET 1 0 0
            }
          }
        }
      }
      JOINT rCollar
      {
        OFFSET -2.68224 19.2634 -4.8768
        CHANNELS 3 Zrotation Xrotation Yrotation
        JOINT rShldr
        {
          OFFSET -8.77824 -1.95073 1.46304
          CHANNELS 3 Zrotation Xrotation Yrotation
          JOINT rForeArm
          {
            OFFSET -28.1742 -1.7115 0.48768
            CHANNELS 3 Zrotation Xrotation Yrotation
            JOINT rHand
            {
              OFFSET -22.5879 0.773209 7.07136
              CHANNELS 3 Zrotation Xrotation Yrotation
              JOINT rThumb1
              {
                OFFSET -1.2192 -0.487915 3.41376
                CHANNELS 3 Zrotation Xrotation Yrotation
                JOINT rThumb2
                {
                  OFFSET -3.37035 -0.52449 3.41376
                  CHANNELS 3 Zrotation Xrotation Yrotation
                  End Site
                  {
                    OFFSET -1.78271 -1.18214 1.43049
                  }
                }
              }
              JOINT rIndex1
              {
                OFFSET -7.75947 0.938293 5.60832
                CHANNELS 3 Zrotation Xrotation Yrotation
                JOINT rIndex2
                {
                  OFFSET -2.54057 -0.884171 1.56538
                  CHANNELS 3 Zrotation Xrotation Yrotation
                  End Site
                  {
                    OFFSET -1.62519 -0.234802 1.16502
                  }
                }
              }
              JOINT rMid1
              {
                OFFSET -8.24714 1.18213 3.41376
                CHANNELS 3 Zrotation Xrotation Yrotation
                JOINT rMid2
                {
                  OFFSET -3.10165 -0.590103 1.0647
                  CHANNELS 3 Zrotation Xrotation Yrotation
                  End Site
                  {
                    OFFSET -2.48547 -0.328903 0.83742
                  }
                }
              }
              JOINT rRing1
              {
                OFFSET -8.82822 0.546677 1.51678
                CHANNELS 3 Zrotation Xrotation Yrotation
                JOINT rRing2
                {
                  OFFSET -2.60934 -0.819778 -0.0198488
                  CHANNELS 3 Zrotation Xrotation Yrotation
                  End Site
                  {
                    OFFSET -2.33842 -0.294052 0.168128
                  }
                }
              }
              JOINT rPinky1
              {
                OFFSET -8.27202 -0.0477905 -0.4584
                CHANNELS 3 Zrotation Xrotation Yrotation
                JOINT rPinky2
                {
                  OFFSET -1.82734 -0.647385 -0.700984
                  CHANNELS 3 Zrotation Xrotation Yrotation
                  End Site
                  {
                    OFFSET -1.69225 -0.51767 -0.607171
                  }
                }
              }
            }
          }
        }
      }
      JOINT lCollar
      {
        OFFSET 2.68224 19.2634 -4.8768
        CHANNELS 3 Zrotation Xrotation Yrotation
        JOINT lShldr
        {
          OFFSET 8.77824 -1.95073 1.46304
          CHANNELS 3 Zrotation Xrotation Yrotation
          JOINT lForeArm
          {
            OFFSET 28.1742 -1.7115 0.48768
            CHANNELS 3 Zrotation Xrotation Yrotation
            JOINT lHand
            {
              OFFSET 22.5879 0.773209 7.07136
              CHANNELS 3 Zrotation Xrotation Yrotation
              JOINT lThumb1
              {
                OFFSET 1.2192 -0.487915 3.41376
                CHANNELS 3 Zrotation Xrotation Yrotation
                JOINT lThumb2
                {
                  OFFSET 3.37035 -0.52449 3.41376
                  CHANNELS 3 Zrotation Xrotation Yrotation
                  End Site
                  {
                    OFFSET 1.78271 -1.18214 1.43049
                  }
                }
              }
              JOINT lIndex1
              {
                OFFSET 7.75947 0.938293 5.60832
                CHANNELS 3 Zrotation Xrotation Yrotation
                JOINT lIndex2
                {
                  OFFSET 2.54057 -0.884171 1.56538
                  CHANNELS 3 Zrotation Xrotation Yrotation
                  End Site
                  {
                    OFFSET 1.62519 -0.234802 1.16502
                  }
                }
              }
              JOINT lMid1
              {
                OFFSET 8.24714 1.18213 3.41376
                CHANNELS 3 Zrotation Xrotation Yrotation
                JOINT lMid2
                {
                  OFFSET 3.10165 -0.590103 1.0647
                  CHANNELS 3 Zrotation Xrotation Yrotation
                  End Site
                  {
                    OFFSET 2.48547 -0.328903 0.83742
                  }
                }
              }
              JOINT lRing1
              {
                OFFSET 8.82822 0.546677 1.51678
                CHANNELS 3 Zrotation Xrotation Yrotation
                JOINT lRing2
                {
                  OFFSET 2.60934 -0.819778 -0.0198488
                  CHANNELS 3 Zrotation Xrotation Yrotation
                  End Site
                  {
                    OFFSET 2.33842 -0.294052 0.168128
                  }
                }
              }
              JOINT lPinky1
              {
                OFFSET 8.27202 -0.0477905 -0.4584
                CHANNELS 3 Zrotation Xrotation Yrotation
                JOINT lPinky2
                {
                  OFFSET 1.82734 -0.647385 -0.700984
                  CHANNELS 3 Zrotation Xrotation Yrotation
                  End Site
                  {
                    OFFSET 1.69225 -0.51767 -0.607171
                  }
                }
              }
            }
          }
        }
      }
    }
  }
  JOINT rButtock
  {
    OFFSET -8.77824 4.35084 1.2192
    CHANNELS 3 Zrotation Xrotation Yrotation
    JOINT rThigh
    {
      OFFSET 0 -1.70687 -2.19456
      CHANNELS 3 Zrotation Xrotation Yrotation
      JOINT rShin
      {
        OFFSET 0 -36.8199 0.73152
        CHANNELS 3 Zrotation Xrotation Yrotation
        JOINT rFoot
        {
          OFFSET 0.73152 -45.1104 -5.12064
          CHANNELS 3 Zrotation Xrotation Yrotation
          End Site
          {
            OFFSET -1.1221 -3.69964 12.103
          }
        }
      }
    }
  }
  JOINT lButtock
  {
    OFFSET 8.77824 4.35084 1.2192
    CHANNELS 3 Zrotation Xrotation Yrotation
    JOINT lThigh
    {
      OFFSET 0 -1.70687 -2.19456
      CHANNELS 3 Zrotation Xrotation Yrotation
      JOINT lShin
      {
        OFFSET 0 -36.8199 0.73152
        CHANNELS 3 Zrotation Xrotation Yrotation
        JOINT lFoot
        {
          OFFSET -0.73152 -45.1104 -5.12064
          CHANNELS 3 Zrotation Xrotation Yrotation
          End Site
          {
            OFFSET 1.1221 -3.69964 12.103
          }
        }
      }
    }
  }
}
MOTION
Frames:	4
Frame Time:	0.00833333
-4.87764 57.9356 0.902177 -4.7926 -11.4509 12.5037 -5.19145 12.8802 10.5561 3.12774 -9.99758 2.77741 -5.35226 13.0804 -0.598941 10.2818 -31.3228 1.96664 -0.0 0.0 0.0 -0.0 0.0 0.0 -3.01234e-14 1.93517e-13 -2.60069e-13 9.89979 33.5481 80.2296 -18.266 -10.9569 34.6879 -0.00851412 2.53128 0.356023 -1.17587e-09 -4.48114e-09 1.12988e-09 -2.03019e-09 -7.77703e-09 1.9637e-09 -1.17587e-09 -4.48113e-09 1.12988e-09 7.73091 5.47488 0.417314 -1.17587e-09 -4.48115e-09 1.12988e-09 2.90554 0.965183 0.102902 -1.17587e-09 -4.48115e-09 1.12988e-09 10.2786 0.731801 0.0259123 -1.17588e-09 -4.48114e-09 1.12989e-09 2.22167 -0.733487 -0.20892 -3.01103e-14 1.93517e-13 -2.60169e-13 11.1447 1.68037 -118.256 25.2291 -47.6031 -99.112 0.425288 -18.3405 2.66839 -1.64388e-09 -1.64295e-09 2.03223e-10 -2.85161e-09 -2.83482e-09 3.32079e-10 -1.64388e-09 -1.64296e-09 2.03229e-10 -7.73091 5.47488 -0.417314 -1.64388e-09 -1.64295e-09 2.03219e-10 -2.90554 0.965183 -0.102902 -1.64388e-09 -1.64295e-09 2.0322e-10 -10.2786 0.731801 -0.0259123 -1.64387e-09 -1.64295e-09 2.0321e-10 -2.22167 -0.733487 0.20892 -2.03217e-16 0.0 -3.88251e-19 -13.3519 -8.23898 -6.13376 -2.62593 76.3944 4.84918 -2.03524 -5.99836 -27.1306 2.03217e-16 0.0 3.88251e-19 41.3416 -58.471 53.3106 2.86303 72.399 -2.20567 5.21045 -2.48264 24.8519
-4.97793 57.8569 -0.00880984 -5.2075 -13.1939 12.8601 -4.88643 12.436 10.9048 2.99978 -10.1289 2.87906 -5.41156 12.8243 -0.192411 10.2299 -30.7495 2.74417 -0.0 0.0 0.0 -0.0 0.0 0.0 -1.89142e-14 8.78498e-14 -2.57247e-13 6.49037 34.1282 83.4529 -18.748 -11.4917 35.8016 -0.00909731 2.62783 0.369619 -3.30906e-10 -3.19393e-09 1.19799e-09 -5.68708e-10 -5.5378e-09 2.07835e-09 -3.30903e-10 -3.19393e-09 1.19798e-09 7.73091 5.47488 0.417314 -3.30907e-10 -3.19394e-09 1.19799e-09 2.90554 0.965183 0.102902 -3.30903e-10 -3.19394e-09 1.19799e-09 10.2786 0.731801 0.0259123 -3.30914e-10 -3.19393e-09 1.19799e-09 2.22167 -0.733487 -0.20892 -1.89695e-14 8.78509e-14 -2.57338e-13 11.2578 0.857276 -118.428 24.9525 -48.0596 -100.112 0.357946 -16.8543 2.43902 -1.25946e-09 -9.47778e-10 -4.71408e-10 -2.17959e-09 -1.63049e-09 -8.27496e-10 -1.25946e-09 -9.4778e-10 -4.71402e-10 -7.73091 5.47488 -0.417314 -1.25946e-09 -9.47779e-10 -4.71414e-10 -2.90554 0.965183 -0.102902 -1.25947e-09 -9.47776e-10 -4.71411e-10 -10.2786 0.731801 -0.0259123 -1.25946e-09 -9.47773e-10 -4.71421e-10 -2.22167 -0.733487 0.20892 -2.03217e-16 0.0 -3.88251e-19 -14.4768 -6.41225 -5.5486 -1.7973 72.3771 4.07437 -1.76964 -5.57554 -26.9859 2.03217e-16 0.0 3.88251e-19 44.1891 -58.1962 55.8929 2.86949 72.4696 -2.23772 4.99729 -1.95944 25.0104
-5.08598 57.805 -0.86651 -5.6253 -15.0658 13.15 -4.58854 12.0865 11.3193 2.88639 -10.256 3.00288 -5.40405 12.5966 0.208417 10.1071 -30.2121 3.48743 -0.0 0.0 0.0 -0.0 0.0 0.0 -4.22378e-15 3.49853e-14 -2.74671e-13 3.44121 34.6115 86.2733 -19.3654 -12.2341 37.1608 -0.0101721 2.87839 0.404875 1.54613e-10 -2.26395e-09 1.13238e-09 2.70773e-10 -3.92166e-09 1.96342e-09 1.54615e-10 -2.26395e-09 1.13238e-09 7.73091 5.47488 0.417314 1.54611e-10 -2.26395e-09 1.13238e-09 2.90554 0.965183 0.102902 1.54616e-10 -2.26395e-09 1.13238e-09 10.2786 0.731801 0.0259123 1.54605e-10 -2.26395e-09 1.13239e-09 2.22167 -0.733487 -0.20892 -4.32425e-15 3.49865e-14 -2.7477e-13 11.4775 0.403484 -118.186 24.674 -48.4783 -101.076 0.308037 -15.5986 2.24864 -1.04534e-09 -5.70452e-10 -9.0392e-10 -1.80417e-09 -9.75912e-10 -1.57086e-09 -1.04534e-09 -5.7045e-10 -9.03914e-10 -7.73091 5.47488 -0.417314 -1.04534e-09 -5.70451e-10 -9.03926e-10 -2.90554 0.965183 -0.102902 -1.04535e-09 -5.70449e-10 -9.03923e-10 -10.2786 0.731801 -0.0259123 -1.04534e-09 -5.70446e-10 -9.03933e-10 -2.22167 -0.733487 0.20892 -2.03217e-16 0.0 -3.88251e-19 -15.5518 -4.72058 -4.95563 -1.26771 68.3965 3.57997 -1.3849 -5.02721 -26.3352 2.03217e-16 0.0 3.88251e-19 46.8296 -57.6924 58.1822 2.85966 72.4974 -2.27365 4.80078 -1.48637 25.2222
-5.21026 57.7824 -1.68192 -6.0573 -17.0488 13.3683 -4.33053 11.8624 11.8428 2.7817 -10.3832 3.16059 -5.3182 12.3963 0.604243 9.899 -29.731 4.19542 -0.0 0.0 0.0 -0.0 0.0 0.0 2.63239e-14 7.66686e-14 -3.12295e-13 0.768342 35.0519 88.7342 -20.0298 -13.0484 38.7991 -0.0131237 3.31081 0.465829 -1.1911e-11 -2.21379e-09 9.66759e-10 -1.70174e-11 -3.83357e-09 1.67832e-09 -1.19094e-11 -2.2138e-09 9.66758e-10 7.73091 5.47488 0.417314 -1.19128e-11 -2.21379e-09 9.66757e-10 2.90554 0.965183 0.102902 -1.19064e-11 -2.21379e-09 9.66757e-10 10.2786 0.731801 0.0259123 -1.19176e-11 -2.21379e-09 9.66762e-10 2.22167 -0.733487 -0.20892 2.62156e-14 7.66685e-14 -3.1243e-13 11.797 0.11657 -117.415 24.3967 -48.8612 -102.002 0.273594 -14.6856 2.11131 -1.07607e-09 -6.81315e-10 -9.22764e-10 -1.85507e-09 -1.16526e-09 -1.60268e-09 -1.07606e-09 -6.81305e-10 -9.22756e-10 -7.73091 5.47488 -0.417314 -1.07606e-09 -6.81312e-10 -9.22767e-10 -2.90554 0.965183 -0.102902 -1.07607e-09 -6.81311e-10 -9.22766e-10 -10.2786 0.731801 -0.0259123 -1.07606e-09 -6.81308e-10 -9.22774e-10 -2.22167 -0.733487 0.20892 -2.03217e-16 0.0 -3.88251e-19 -16.6407 -3.14517 -4.37764 -0.906353 64.3887 3.22836 -0.824882 -4.2263 -24.9525 2.03217e-16 0.0 3.88251e-19 49.1983 -56.9078 60.166 2.82703 72.4702 -2.31576 4.63706 -1.08997 25.5178
